<?xml version="1.0" standalone="no"?>
<!DOCTYPE svg PUBLIC "-//W3C//DTD SVG 20010904//EN"
 "http://www.w3.org/TR/2001/REC-SVG-20010904/DTD/svg10.dtd">
<svg version="1.0" xmlns="http://www.w3.org/2000/svg"
 width="1792.000000pt" height="1024.000000pt" viewBox="0 0 1792.000000 1024.000000"
 preserveAspectRatio="xMidYMid meet">

<g transform="translate(0.000000,1024.000000) scale(0.100000,-0.100000)"
fill="#000000" stroke="none">
<path d="M0 5120 l0 -5120 8960 0 8960 0 0 5120 0 5120 -8960 0 -8960 0 0
-5120z m8912 3149 c141 -29 260 -122 319 -248 33 -69 35 -71 64 -65 17 3 70 8
118 11 75 4 98 2 150 -17 165 -60 264 -192 274 -363 15 -245 -139 -436 -380
-472 -35 -5 -47 -12 -47 -24 0 -10 11 -138 24 -287 14 -148 27 -303 30 -344
l5 -75 -107 53 -107 52 -11 118 c-6 64 -22 257 -35 427 -22 294 -25 311 -46
333 -28 28 -49 26 -74 -8 -19 -24 -18 -34 6 -385 14 -198 25 -381 25 -406 l0
-45 -87 18 c-49 10 -102 18 -119 18 -20 0 -34 6 -38 16 -3 9 -6 116 -6 238 0
239 -5 266 -53 266 -53 -1 -55 -8 -59 -261 -3 -129 -8 -241 -12 -247 -4 -7
-22 -12 -41 -12 -18 0 -67 -7 -110 -16 -42 -9 -79 -13 -82 -10 -3 2 4 146 16
318 34 510 34 491 19 509 -23 30 -55 33 -81 7 -21 -21 -24 -36 -30 -133 -7
-106 -23 -309 -49 -612 -7 -79 -16 -143 -21 -143 -5 0 -53 -22 -108 -50 l-99
-50 0 43 c0 23 5 85 10 137 17 159 50 509 50 529 0 15 -12 21 -62 30 -142 27
-259 117 -320 247 -54 117 -50 284 10 397 34 63 119 142 189 175 51 24 70 27
158 27 55 0 117 -4 138 -9 30 -7 37 -5 37 6 0 35 64 139 115 187 112 106 274
152 427 120z m1873 -813 c178 -172 180 -173 166 -199 -19 -36 -293 -304 -361
-353 -30 -22 -102 -67 -160 -99 -191 -106 -236 -143 -441 -363 -106 -114 -199
-214 -206 -222 -11 -12 -22 -5 -78 53 -36 37 -65 70 -65 74 0 3 57 65 128 137
205 210 268 297 318 436 65 182 144 319 260 452 100 113 239 256 249 257 6 0
91 -77 190 -173z m-3427 -178 c319 -307 430 -420 452 -465 33 -67 37 -160 11
-243 l-21 -65 86 -84 86 -84 -64 -64 -63 -64 -80 87 -81 87 -56 -21 c-114 -43
-230 -37 -299 14 -19 13 -157 144 -306 291 -231 225 -273 270 -273 294 0 28
38 65 59 57 5 -1 127 -119 272 -262 147 -144 277 -265 296 -272 46 -20 140
-17 188 5 45 20 85 63 117 124 23 46 28 138 9 177 -7 14 -129 140 -272 280
-245 242 -259 257 -259 292 0 36 7 43 48 47 6 0 74 -58 150 -131z m-25 -251
c210 -206 257 -257 257 -279 0 -30 -25 -61 -46 -56 -23 5 -524 510 -530 534
-8 29 11 54 40 54 14 -1 109 -87 279 -253z m-140 -120 c224 -219 248 -245 247
-274 0 -26 -5 -34 -25 -39 -13 -3 -29 -4 -34 -2 -6 1 -121 113 -256 247 -244
244 -264 268 -233 299 29 29 56 9 301 -231z m-498 -186 c17 -10 223 -210 458
-442 l428 -424 0 -80 c-1 -44 4 -96 9 -115 8 -28 89 -115 367 -393 197 -196
367 -363 378 -371 14 -9 64 -15 155 -19 158 -6 255 -28 377 -86 270 -130 452
-346 530 -628 24 -89 26 -114 27 -278 0 -194 -10 -262 -59 -391 -116 -310
-376 -534 -705 -609 -63 -15 -147 -18 -517 -22 l-443 -5 0 1011 c0 556 4 1011
8 1011 5 0 21 -14 38 -31 16 -17 118 -114 227 -216 l197 -185 0 -559 0 -559
171 0 c191 0 260 12 345 61 107 61 183 161 235 309 32 94 32 276 0 370 -63
179 -196 308 -359 347 l-75 17 -181 186 c-100 102 -244 250 -321 330 -339 352
-512 523 -542 536 -22 9 -72 14 -151 14 l-119 0 -429 429 c-236 237 -432 438
-435 448 -4 10 -8 34 -8 54 -1 46 59 131 148 210 109 97 182 121 246 80z
m4404 -6 c74 -23 144 -93 165 -166 58 -193 -47 -591 -217 -829 -101 -141 -251
-260 -397 -318 -150 -58 -290 -85 -516 -98 l-119 -6 -100 -102 c-54 -55 -198
-201 -318 -323 l-220 -222 -63 66 c-35 36 -64 71 -64 76 0 6 71 83 158 171 86
89 226 231 310 317 l153 156 4 154 c6 245 34 397 103 557 65 151 158 270 281
361 157 116 348 190 576 225 58 8 210 -2 264 -19z m-2049 -363 c267 -67 475
-240 539 -447 10 -33 22 -95 26 -138 l7 -77 -94 0 -95 0 -12 74 c-21 127 -107
244 -231 314 -225 126 -578 118 -789 -18 -106 -69 -191 -216 -191 -331 l0 -39
-101 0 -102 0 6 78 c23 306 252 528 617 597 102 20 319 13 420 -13z m-460
-583 c71 -16 145 -67 202 -139 164 -206 236 -270 301 -270 72 0 126 49 127
113 0 79 -62 136 -134 122 -43 -9 -103 -50 -111 -75 l-7 -22 -24 23 c-13 12
-41 47 -61 77 l-38 54 48 43 c57 52 130 79 212 79 74 0 136 -26 200 -85 72
-66 90 -108 90 -209 0 -75 -4 -92 -30 -144 -69 -136 -212 -196 -361 -151 -64
19 -104 49 -166 126 -115 144 -210 250 -238 264 -38 20 -105 19 -140 -2 -33
-19 -50 -51 -50 -94 0 -114 143 -161 225 -73 l24 26 34 -39 c55 -61 87 -100
87 -107 0 -14 -68 -68 -110 -88 -58 -28 -205 -30 -262 -5 -149 67 -217 258
-148 414 34 77 84 122 173 153 59 22 93 24 157 9z m-1913 -910 c306 -70 538
-250 673 -524 218 -442 100 -983 -280 -1286 -108 -87 -295 -167 -441 -190
-105 -16 -324 -6 -422 20 -207 54 -431 215 -555 398 -162 239 -219 552 -153
845 118 523 653 857 1178 737z m3453 -994 l0 -1005 -225 0 -225 0 2 903 3 903
30 60 c22 43 43 68 79 92 66 44 93 50 224 51 l112 1 0 -1005z m360 924 c35
-30 119 -101 185 -159 66 -58 194 -168 285 -245 91 -76 202 -172 246 -212 45
-40 85 -73 88 -73 3 0 6 173 6 385 l0 385 210 0 209 0 3 -555 3 -556 40 -34
c22 -19 43 -34 48 -35 4 0 7 266 7 590 l0 590 220 0 220 0 0 -1075 c0 -591 -3
-1075 -6 -1075 -3 0 -86 66 -183 148 -162 134 -322 266 -756 624 -82 68 -221
181 -307 251 l-158 128 0 -506 0 -505 -225 0 -225 0 0 1007 c0 807 2 1004 13
992 6 -9 41 -40 77 -70z m-1928 -2217 c46 -20 121 -80 116 -91 -2 -4 -22 -24
-45 -44 l-41 -38 -48 31 c-86 54 -178 33 -222 -51 -29 -54 -25 -113 9 -164 50
-73 143 -84 225 -27 l43 31 42 -50 42 -50 -34 -29 c-74 -64 -196 -87 -291 -54
-106 36 -190 157 -191 276 -1 205 208 343 395 260z m2523 -2 c22 -10 48 -25
58 -33 17 -14 17 -16 -5 -50 -13 -19 -28 -42 -33 -52 -10 -17 -13 -16 -51 3
-83 42 -154 37 -154 -12 0 -27 19 -38 115 -67 89 -27 123 -51 147 -107 33 -74
4 -156 -71 -200 -41 -24 -56 -27 -136 -27 -92 0 -147 17 -197 62 -17 15 -16
17 7 44 13 16 26 38 30 49 8 25 12 25 53 0 76 -47 182 -44 182 5 0 28 -18 40
-93 62 -112 33 -162 76 -174 148 -7 45 18 113 57 150 57 55 177 66 265 25z
m-4000 -4 c58 -27 78 -47 100 -99 31 -75 5 -179 -54 -215 l-30 -18 56 -98 c30
-53 53 -99 51 -101 -2 -3 -29 -7 -59 -11 l-56 -6 -48 58 c-26 33 -55 74 -63
92 -9 18 -23 32 -33 32 -10 0 -24 3 -33 6 -14 5 -16 -6 -16 -90 l0 -96 -65 0
-65 0 0 285 0 285 133 0 c118 0 137 -3 182 -24z m790 -41 l0 -60 -118 -3 -118
-3 3 -42 3 -42 89 -5 90 -5 -3 -50 c-1 -27 -5 -53 -7 -57 -3 -5 -41 -8 -85 -8
l-79 0 0 -50 0 -50 120 0 121 0 -3 -62 -3 -63 -182 -3 -183 -2 0 285 0 285
178 -2 177 -3 0 -60z m1229 -210 c4 -152 4 -280 1 -285 -3 -6 -35 -10 -71 -10
l-64 0 0 285 0 285 63 0 64 0 7 -275z m632 247 c109 -57 146 -192 80 -292 -34
-51 -84 -73 -183 -78 l-83 -5 0 -83 0 -84 -59 0 c-58 0 -59 1 -65 31 -3 17 -6
146 -6 286 l0 255 138 -4 c116 -3 143 -7 178 -26z m734 -37 l0 -65 -121 0
-120 0 3 -42 3 -43 88 -3 87 -3 1 -29 c1 -17 2 -37 2 -45 0 -46 1 -45 -93 -45
l-90 0 0 -50 0 -50 125 0 125 0 0 -49 c0 -85 10 -81 -190 -81 -153 0 -179 2
-184 16 -3 9 -6 137 -6 285 l0 269 185 0 185 0 0 -65z m-4041 -151 c32 -40 29
-106 -5 -133 -26 -20 -38 -21 -366 -21 -378 0 -387 1 -408 64 -9 28 -8 40 4
65 9 16 24 35 33 40 11 7 149 11 370 11 l352 0 20 -26z m5745 -5 c37 -44 35
-90 -5 -123 l-31 -26 -314 0 c-207 0 -322 4 -336 11 -11 6 -26 26 -34 45 -12
29 -12 39 0 68 8 19 22 39 33 45 12 7 130 10 340 11 l321 0 26 -31z"/>
<path d="M10516 7356 c-148 -162 -229 -284 -287 -435 -30 -79 -30 -94 -2 -69
10 8 65 38 123 67 127 64 215 129 338 247 l93 89 -94 93 -94 93 -77 -85z"/>
<path d="M6532 6548 c-7 -7 -12 -24 -12 -39 0 -23 69 -96 406 -431 223 -221
412 -407 420 -411 26 -15 63 1 70 29 4 14 5 27 3 29 -2 2 -191 191 -419 420
-281 282 -421 415 -435 415 -12 0 -26 -5 -33 -12z"/>
<path d="M10775 6545 c-228 -51 -423 -166 -538 -317 -126 -166 -177 -338 -177
-603 l0 -132 37 -6 c43 -7 208 8 303 28 345 73 558 290 664 676 58 214 57 276
-5 335 -29 28 -35 29 -127 31 -54 1 -124 -4 -157 -12z"/>
<path d="M6365 4400 c-230 -46 -380 -216 -415 -470 -37 -268 153 -548 407
-600 79 -17 215 -8 287 18 298 108 434 486 283 787 -40 81 -146 184 -228 223
-100 47 -227 63 -334 42z"/>
<path d="M6900 2426 c0 -73 9 -93 47 -99 54 -9 88 2 106 33 13 21 15 35 8 54
-14 34 -40 46 -105 46 l-56 0 0 -34z"/>
<path d="M9557 2393 c3 -38 7 -69 8 -71 1 -1 24 -5 51 -8 65 -8 98 16 98 71 0
54 -29 75 -105 75 l-58 0 6 -67z"/>
</g>
</svg>
