<?xml version="1.0" standalone="no"?>
<!DOCTYPE svg PUBLIC "-//W3C//DTD SVG 20010904//EN"
 "http://www.w3.org/TR/2001/REC-SVG-20010904/DTD/svg10.dtd">
<svg version="1.0" xmlns="http://www.w3.org/2000/svg"
 width="1792.000000pt" height="1024.000000pt" viewBox="0 0 1792.000000 1024.000000"
 preserveAspectRatio="xMidYMid meet">

<g transform="translate(0.000000,1024.000000) scale(0.100000,-0.100000)"
fill="#000000" stroke="none">
<path d="M8732 8075 c-94 -26 -169 -77 -231 -155 l-41 -51 36 -37 c64 -66 89
-123 85 -194 -1 -26 -37 -58 -64 -58 -27 0 -52 26 -90 90 -57 98 -135 160
-235 185 -210 54 -418 -110 -452 -355 -25 -184 70 -364 234 -441 75 -35 127
-40 156 -14 18 16 20 31 20 126 0 98 2 110 22 129 29 27 59 25 87 -4 22 -23
22 -27 24 -364 2 -319 3 -341 21 -361 19 -21 23 -21 535 -21 451 0 519 2 539
16 22 15 22 20 22 222 0 114 3 272 7 351 5 126 9 145 26 162 27 25 59 24 83
-2 16 -18 19 -37 19 -130 0 -90 3 -111 17 -126 26 -25 88 -19 164 16 170 79
263 256 234 444 -33 219 -221 386 -435 387 -90 0 -113 -37 -80 -130 23 -66 20
-132 -8 -158 -55 -52 -110 -4 -120 104 -13 140 -112 274 -252 344 -64 31 -79
34 -170 37 -65 2 -118 -2 -153 -12z m-97 -710 l25 -24 0 -273 c0 -231 -2 -277
-16 -296 -20 -28 -61 -29 -91 0 -23 21 -23 22 -23 293 0 260 1 273 21 299 26
33 53 33 84 1z m500 0 c25 -24 25 -27 28 -217 4 -346 4 -354 -17 -377 -27 -30
-70 -27 -95 5 -20 26 -21 39 -21 296 l0 269 25 24 c13 14 31 25 40 25 9 0 27
-11 40 -25z"/>
<path d="M8082 6331 c-88 -6 -111 -15 -112 -43 0 -8 64 -80 244 -277 105 -115
134 -141 156 -141 52 0 55 16 52 219 -2 102 -8 194 -13 203 -25 47 -83 54
-327 39z"/>
<path d="M8657 6330 c-90 -11 -82 85 -82 -1005 0 -912 1 -965 18 -982 16 -16
38 -18 198 -18 l181 0 24 28 c31 36 31 71 -1 102 -23 24 -31 25 -136 25 l-111
0 4 491 4 491 23 19 c32 26 123 25 198 -2 142 -53 252 -161 416 -411 62 -95
129 -200 149 -233 126 -209 71 -429 -140 -568 -136 -90 -241 -109 -557 -105
-110 2 -212 0 -226 -4 -43 -12 -49 -43 -49 -244 0 -202 8 -239 55 -264 34 -18
479 -8 600 15 283 52 562 203 743 402 88 96 232 336 232 386 0 25 -44 86 -130
182 -40 44 -124 159 -188 255 -167 254 -180 274 -256 369 -144 179 -287 328
-488 508 -123 110 -128 116 -128 153 0 47 33 76 74 66 43 -11 176 -125 357
-305 250 -251 385 -420 540 -678 115 -190 265 -371 288 -348 6 6 17 62 27 125
20 136 15 331 -11 455 -56 270 -197 514 -411 714 -233 217 -599 363 -949 377
-66 2 -142 6 -170 7 -27 2 -71 1 -98 -3z"/>
<path d="M10086 6317 c-17 -17 -26 -37 -26 -57 0 -20 9 -40 26 -57 21 -21 32
-24 62 -19 43 6 72 37 72 76 0 39 -29 70 -72 76 -30 5 -41 2 -62 -19z"/>
<path d="M10695 6325 c-22 -8 -41 -15 -42 -15 -1 0 -9 -13 -18 -30 -13 -25
-15 -179 -15 -1290 0 -1099 2 -1265 15 -1290 29 -57 43 -60 238 -60 l179 0 33
33 c24 24 35 46 40 78 3 24 5 595 3 1269 -3 1149 -4 1227 -21 1257 -30 55 -58
63 -224 63 -103 -1 -160 -5 -188 -15z"/>
<path d="M11411 6330 c-18 -4 -43 -18 -55 -29 l-21 -22 -5 -1262 c-3 -694 -1
-1276 3 -1294 4 -17 21 -43 38 -57 30 -26 33 -26 194 -26 90 0 175 4 189 10
14 5 35 24 46 42 19 32 20 51 20 730 0 679 1 698 19 708 11 5 24 10 29 10 5 0
63 -59 128 -132 274 -304 412 -459 493 -553 97 -114 597 -668 687 -762 l60
-63 59 0 c82 1 136 26 160 76 17 36 18 103 19 1288 l1 1251 -23 33 c-40 56
-64 62 -229 61 -164 0 -205 -9 -237 -52 -21 -28 -21 -39 -26 -640 -6 -709 2
-667 -103 -551 -34 38 -96 105 -137 149 -41 44 -131 143 -200 220 -69 76 -173
191 -231 255 -122 133 -271 297 -419 460 -149 165 -130 155 -290 157 -74 1
-150 -2 -169 -7z m820 -757 c68 -76 171 -187 228 -248 115 -121 404 -437 639
-698 84 -93 152 -177 152 -187 0 -55 -41 -97 -84 -86 -12 3 -87 79 -167 168
-79 89 -257 284 -394 433 -557 602 -615 668 -615 700 0 26 41 55 79 55 37 0
44 -6 162 -137z m-294 -90 c21 -21 130 -139 243 -263 113 -123 245 -267 294
-320 49 -52 136 -148 193 -213 96 -110 104 -121 101 -155 -2 -29 -9 -40 -30
-50 -15 -7 -38 -10 -52 -6 -16 4 -82 68 -172 168 -81 88 -199 217 -263 286
-241 261 -407 445 -423 469 -23 34 -23 63 3 95 29 37 61 33 106 -11z"/>
<path d="M5640 6148 c-197 -11 -528 -106 -642 -183 -33 -22 -38 -31 -38 -65 0
-38 9 -50 146 -200 117 -129 151 -160 172 -160 15 0 62 18 107 39 110 55 217
75 385 76 157 0 245 -17 387 -75 299 -123 528 -382 615 -699 19 -65 22 -104
22 -271 0 -179 -2 -203 -26 -291 -14 -52 -42 -129 -62 -170 -20 -41 -36 -82
-36 -92 0 -26 24 -68 55 -97 15 -14 70 -73 122 -132 134 -152 148 -149 263 58
93 169 145 329 176 551 54 386 -54 799 -291 1115 -73 97 -234 254 -331 323
-228 163 -532 264 -834 277 -36 2 -121 0 -190 -4z"/>
<path d="M7912 6078 c-9 -9 -12 -281 -12 -1164 0 -633 3 -1166 6 -1183 4 -18
20 -45 36 -62 l30 -29 184 0 c195 0 231 7 253 49 7 12 11 345 11 937 l1 917
-23 31 c-12 17 -96 114 -187 216 -297 334 -274 313 -299 288z"/>
<path d="M4440 6035 c-21 -26 -6 -97 35 -164 20 -34 110 -138 199 -232 383
-403 394 -419 382 -526 -18 -157 -18 -291 -1 -374 53 -265 327 -603 581 -719
33 -15 125 -48 205 -74 316 -102 416 -178 601 -461 93 -142 289 -454 446 -710
86 -140 120 -183 165 -209 157 -91 357 21 357 199 0 110 -11 125 -284 407
-633 652 -635 654 -676 772 -31 91 -34 168 -15 332 12 104 16 190 13 288 -5
123 -9 151 -34 221 -99 272 -322 497 -583 587 -30 10 -96 23 -145 29 -94 10
-114 9 -312 -27 -153 -27 -149 -30 -385 229 -291 318 -366 394 -423 422 -56
28 -108 32 -126 10z m1342 -815 c68 -21 161 -76 241 -142 69 -58 170 -189 217
-282 105 -209 82 -426 -46 -426 -50 0 -88 34 -258 230 -425 491 -436 506 -404
574 32 65 129 83 250 46z m-413 -215 c16 -8 94 -90 174 -182 80 -92 186 -215
237 -273 218 -249 236 -281 206 -354 -12 -28 -26 -42 -63 -58 -44 -19 -54 -20
-117 -9 -112 19 -194 69 -322 196 -61 60 -130 139 -154 174 -106 159 -148 347
-99 448 32 66 82 87 138 58z m1864 -2166 c35 -38 35 -73 -2 -110 -38 -38 -87
-39 -125 -4 -47 44 -29 124 34 148 27 10 65 -3 93 -34z"/>
<path d="M4488 5543 c-34 -38 -120 -203 -157 -298 -108 -279 -134 -596 -75
-907 84 -445 432 -886 858 -1089 289 -138 585 -184 886 -138 74 11 217 45 257
60 59 22 57 62 -5 131 -26 29 -89 101 -139 159 -51 58 -105 111 -120 117 -15
6 -109 13 -208 15 -153 4 -193 9 -265 29 -294 85 -512 254 -659 511 -170 295
-183 652 -34 955 35 70 44 97 37 112 -8 17 -190 223 -285 322 -40 41 -67 48
-91 21z"/>
<path d="M9437 3329 c-99 -24 -177 -95 -204 -188 -47 -164 82 -334 257 -335
75 -1 104 9 150 50 46 42 50 65 15 93 l-26 20 -55 -30 c-63 -32 -89 -35 -138
-15 -81 34 -116 135 -74 216 44 85 125 105 216 54 l51 -28 25 24 c32 29 32 41
1 78 -42 51 -144 79 -218 61z"/>
<path d="M12020 3328 c-108 -31 -162 -141 -110 -226 21 -33 72 -62 168 -92 54
-17 70 -42 47 -76 -24 -38 -100 -36 -158 3 l-37 26 -25 -23 c-34 -32 -31 -53
11 -88 114 -94 282 -56 324 74 22 66 -17 137 -92 169 -164 69 -166 72 -128
113 24 26 81 29 120 7 38 -22 66 -18 85 11 15 23 15 28 1 49 -16 25 -111 66
-149 64 -12 0 -38 -5 -57 -11z"/>
<path d="M7973 3324 c-46 -11 -48 -23 -48 -266 0 -216 1 -230 19 -244 26 -18
60 -18 76 1 7 8 12 42 12 77 0 37 5 66 11 70 29 19 49 4 102 -71 60 -85 77
-97 119 -82 41 16 39 40 -14 123 l-39 62 28 17 c43 26 75 100 67 156 -14 107
-78 153 -219 158 -51 2 -102 1 -114 -1z m180 -115 c30 -16 37 -28 37 -68 0
-53 -23 -71 -90 -71 l-57 0 -6 61 c-3 34 -3 68 0 75 6 17 85 19 116 3z"/>
<path d="M8683 3322 c-18 -2 -37 -11 -42 -20 -5 -10 -11 -117 -13 -239 -3
-203 -1 -224 15 -240 15 -16 35 -18 147 -17 111 1 133 4 150 19 26 24 25 50
-2 69 -16 12 -47 16 -116 16 l-93 0 3 53 3 52 87 5 c94 5 92 5 102 37 5 15 1
28 -13 42 -17 17 -34 21 -95 21 -83 0 -91 7 -80 66 l6 34 87 0 c62 0 93 4 109
16 28 19 28 45 1 70 -18 16 -37 19 -123 19 -55 0 -116 -1 -133 -3z"/>
<path d="M10041 3313 c-21 -18 -22 -22 -19 -253 l3 -235 28 -13 c24 -12 31
-11 53 2 l24 16 0 228 c0 167 -3 232 -12 244 -21 26 -53 30 -77 11z"/>
<path d="M10655 3323 c-55 -8 -55 -7 -55 -258 0 -212 2 -233 18 -248 10 -10
27 -17 38 -17 38 0 48 17 52 84 l4 66 57 0 c166 1 257 146 178 284 -28 50 -64
76 -118 87 -46 8 -122 9 -174 2z m187 -133 c25 -30 24 -90 -2 -118 -17 -17
-32 -22 -75 -22 l-55 0 0 86 0 86 57 -4 c43 -4 61 -10 75 -28z"/>
<path d="M11303 3320 c-39 -16 -43 -40 -43 -258 0 -273 -11 -257 174 -257 123
0 136 2 150 20 19 25 20 36 2 61 -12 16 -29 20 -115 22 l-101 4 0 54 0 54 69
0 c38 0 82 4 96 10 22 8 26 15 23 42 -3 38 -22 45 -125 47 l-63 1 0 34 c0 64
3 66 99 66 62 0 93 4 109 16 27 19 28 48 2 74 -18 18 -33 20 -137 19 -65 0
-128 -4 -140 -9z"/>
</g>
</svg>
